<svg width="56" height="60" viewBox="0 0 56 60" fill="none" xmlns="http://www.w3.org/2000/svg">
<path d="M46.4163 46.9077C35.6468 57.6773 20.3526 57.6773 9.58301 46.9077C12.09 44.4007 16.8475 41.6216 23.2152 39.0746V33.9804C23.2152 33.9804 20.6681 33.0864 20.6681 27.6128C18.1211 27.6128 18.1211 22.5187 20.6681 22.5187C20.6681 21.7851 16.4018 15.0532 21.7659 16.151C23.0394 11.0569 35.5939 11.0569 36.8674 16.151C37.6264 19.1846 35.7263 21.9812 35.7263 22.5187C38.1944 22.5187 37.5194 27.6128 35.7467 27.6128C35.7467 33.0864 33.4034 33.9804 33.4034 33.9804V39.0746C39.771 41.6216 43.1669 43.7471 46.4163 46.9077Z" stroke="#555555" stroke-width="2.20833" stroke-linecap="round" stroke-linejoin="round"/>
<path d="M55 28.1137C55 43.0688 42.9092 55.1878 28 55.1878C13.0908 55.1878 1 43.0688 1 28.1137C1 13.1587 13.0908 1.03967 28 1.03967C42.9092 1.03967 55 13.1587 55 28.1137Z" stroke="#555555" stroke-width="2"/>
</svg>
