<svg width="86" height="24" viewBox="0 0 86 24" fill="none" xmlns="http://www.w3.org/2000/svg">
<path d="M85.2298 23.4655C83.9971 23.6552 82.5076 24 77.9362 24C72.9368 24 69.0674 22.6379 69.0674 16.069V7.93104C69.0674 1.36207 72.9539 0 77.9362 0C82.5076 0 83.9971 0.344823 85.2298 0.534479C85.812 0.603444 86.0003 0.810343 86.0003 1.34483V3.84483C86.0003 4.27586 85.6579 4.62069 85.2298 4.62069H77.3883C75.1625 4.62069 74.3578 5.39655 74.3578 7.94827V9.5H84.7676C85.1956 9.5 85.538 9.84482 85.538 10.2759V13.069C85.538 13.5 85.1956 13.8448 84.7676 13.8448H74.3578V16.1034C74.3578 18.6552 75.1625 19.431 77.3883 19.431H85.2298C85.6579 19.431 86.0003 19.7759 86.0003 20.2069V22.6897C86.0003 23.1897 85.812 23.3965 85.2298 23.4655Z" fill="#111111"/>
<path d="M40.0804 1.32756L36.2795 22.7758C36.1939 23.1724 35.8857 23.5172 35.5091 23.5172H35.1153C34.7728 23.5172 34.5674 23.2414 34.5674 22.931C34.5674 22.8448 34.5674 22.8103 34.5674 22.7758L38.3683 1.32756C38.4539 0.931007 38.7621 0.586182 39.1388 0.586182H39.5325C39.875 0.586182 40.0804 0.862043 40.0804 1.17239C40.0804 1.25859 40.0804 1.29308 40.0804 1.32756Z" fill="#111111"/>
<path d="M30.3731 1.24135L27.2399 20.3793C26.8975 22.8103 25.7846 23.5172 23.7814 23.5172H21.7097C19.9805 23.5172 19.0559 22.6724 18.5252 20.431L15.4947 10.8103C15.4262 10.4655 15.4262 10.3793 15.2721 10.3793C15.1181 10.3793 15.0838 10.4483 14.9982 10.8103L11.9506 20.431C11.4199 22.6724 10.4953 23.5172 8.76608 23.5172H6.67728C4.6741 23.5172 3.56122 22.8276 3.21879 20.3793L0 1.24135C0 1.20687 0 1.17239 0 1.12067C0 0.775838 0.308182 0.586182 0.650607 0.586182H4.72546C5.03365 0.586182 5.34183 0.862044 5.37607 1.27584L7.75592 18.2414C7.79017 18.5862 7.79017 18.8276 7.94426 18.8276C8.09835 18.8276 8.09835 18.6034 8.16683 18.2414L11.4712 7.81032C11.6938 6.87929 12.2417 6.06894 13.8853 6.06894H16.5391C18.1828 6.06894 18.7306 6.87929 18.9532 7.81032L22.2576 18.2414C22.3261 18.5862 22.3261 18.8276 22.4802 18.8276C22.6343 18.8276 22.6343 18.6034 22.6685 18.2414L24.9628 1.27584C24.997 0.844802 25.3052 0.586182 25.6134 0.586182H29.6882C30.0307 0.586182 30.3388 0.775838 30.3388 1.12067C30.3731 1.17239 30.3731 1.20687 30.3731 1.24135Z" fill="#111111"/>
<path d="M63.2283 0.586182H62.766C62.3722 0.586182 62.0983 0.931007 62.0298 1.32756L58.5028 21.5517C58.4686 21.7069 58.2631 21.862 58.2289 21.862H58.2117C58.1946 21.862 58.1946 21.862 58.1775 21.862C58.0576 21.8448 58.0234 21.7414 57.9892 21.6034L51.6372 1.81032C51.3975 1.13791 50.901 0.603424 49.8908 0.603424C49.8395 0.603424 49.7881 0.603424 49.7367 0.603424C49.7196 0.603424 49.6854 0.603424 49.6682 0.603424C48.8978 0.689631 48.0075 1.18963 47.7678 2.49998L44.1895 22.7758C44.1895 22.8103 44.1895 22.862 44.1895 22.931C44.1895 23.2414 44.3778 23.5172 44.7373 23.5172H45.1311C45.5249 23.5172 45.8331 23.1724 45.9016 22.7758L49.4799 2.49998C49.5142 2.32756 49.5998 2.2586 49.6682 2.24136C49.6854 2.24136 49.6854 2.22411 49.7025 2.22411C49.7196 2.22411 49.7196 2.22411 49.7367 2.22411C49.8737 2.24135 50.0107 2.3448 50.0449 2.49998L56.3969 22.2586C56.7051 23.2414 57.2187 23.5172 58.1775 23.5172H58.1946C59.1534 23.5 60.0095 22.8103 60.232 21.5689L63.759 1.3448C63.759 1.31032 63.759 1.22411 63.759 1.18963C63.7761 0.862044 63.622 0.586182 63.2283 0.586182Z" fill="#111111"/>
</svg>
