<svg width="57" height="57" viewBox="0 0 57 57" fill="none" xmlns="http://www.w3.org/2000/svg">
<path fill-rule="evenodd" clip-rule="evenodd" d="M24.042 14.7474C18.3581 14.7474 13.7503 19.3551 13.7503 25.0391C13.7503 30.723 18.3581 35.3307 24.042 35.3307C29.7259 35.3307 34.3337 30.723 34.3337 25.0391C34.3337 19.3551 29.7259 14.7474 24.042 14.7474ZM12.167 25.0391C12.167 18.4807 17.4836 13.1641 24.042 13.1641C30.6004 13.1641 35.917 18.4807 35.917 25.0391C35.917 28.034 34.8083 30.77 32.9789 32.8589L43.5991 43.4791C43.9082 43.7882 43.9082 44.2895 43.5991 44.5987C43.2899 44.9078 42.7887 44.9078 42.4795 44.5987L31.8592 33.9784C29.7705 35.8063 27.0356 36.9141 24.042 36.9141C17.4836 36.9141 12.167 31.5974 12.167 25.0391Z" fill="#555555"/>
<circle cx="28" cy="28.9974" r="27" stroke="#555555" stroke-width="2"/>
</svg>
