<svg width="40" height="40" viewBox="0 0 40 40" fill="none" xmlns="http://www.w3.org/2000/svg">
<mask id="mask0_6851_14577" style="mask-type:alpha" maskUnits="userSpaceOnUse" x="0" y="0" width="40" height="40">
<path d="M20.0917 39.1293C30.8434 39.1293 39.5594 30.4134 39.5594 19.6616C39.5594 8.90995 30.8434 0.19397 20.0917 0.19397C9.34 0.19397 0.624023 8.90995 0.624023 19.6616C0.624023 30.4134 9.34 39.1293 20.0917 39.1293Z" fill="#C4C4C4"/>
</mask>
<g mask="url(#mask0_6851_14577)">
<rect x="-8.22559" y="-8.65503" width="56.6333" height="56.6333" fill="url(#paint0_linear_6851_14577)"/>
<g clip-path="url(#clip0_6851_14577)">
<path fill-rule="evenodd" clip-rule="evenodd" d="M23.6034 47.757L16.5518 43.8429L26.0919 28.3999L33.1435 32.3139L23.6034 47.757Z" fill="#FA6400"/>
<path fill-rule="evenodd" clip-rule="evenodd" d="M-11.1006 50.028L-3.30292 53.8407H-0.682628L10.3581 36.0213L0.784239 30.7228L-11.1006 50.028Z" fill="#5CB79F"/>
<path fill-rule="evenodd" clip-rule="evenodd" d="M18.2559 39.4611L11.4639 35.7707L13.742 32.1608L20.534 35.8512L18.2559 39.4611Z" fill="#B71277"/>
<path fill-rule="evenodd" clip-rule="evenodd" d="M24.2664 47.8601L40.4418 56.6632L80.7203 42.4682L40.1051 21.8434L24.2664 47.8601Z" fill="#F75F75"/>
<path fill-rule="evenodd" clip-rule="evenodd" d="M-6.89844 25.7322L10.6984 35.4238L13.7796 30.48L-3.91828 20.6571L-6.89844 25.7322Z" fill="#DF3378"/>
<path fill-rule="evenodd" clip-rule="evenodd" d="M10.9621 51.0753L4.16309 47.3668L11.0799 36.3639L17.879 40.0724L10.9621 51.0753Z" fill="#F5B554"/>
</g>
<path d="M12.1066 17.1656C12.2772 17.0966 12.4272 17.0042 12.5551 16.8883C12.6831 16.7725 12.7833 16.6345 12.8563 16.475C12.9287 16.3162 12.9656 16.1457 12.9656 15.9654V14.0055C12.9656 13.7907 12.5532 13.5922 12.4504 13.4119C12.5532 13.2224 12.9656 13.0207 12.9656 12.8052V10.639C12.9656 10.4581 12.9294 10.2882 12.8563 10.1293C12.784 9.97053 12.6831 9.83058 12.5551 9.71016C12.4272 9.58975 12.2772 9.49537 12.1066 9.42637C11.9353 9.35737 11.7562 9.32288 11.5681 9.32288H9.10742V17.2691H11.5681C11.7562 17.2691 11.9359 17.2346 12.1066 17.1656ZM11.4149 15.8501H10.6587V13.8792H11.4149V15.8501ZM11.4149 12.4589H10.6587V10.4997H11.4149V12.4589Z" fill="white"/>
<path d="M12.9646 17.5842H9.10645V18.3445H12.9646V17.5842Z" fill="white"/>
<path d="M16.7707 16.5892H15.0151V9.32251H13.4639V18.3571H16.7707V16.5892Z" fill="white"/>
<path d="M25.9858 9.83164C25.8578 9.68129 25.7079 9.56282 25.5372 9.4769C25.3659 9.39098 25.1869 9.34802 24.9988 9.34802H23.5762C23.3797 9.34802 23.198 9.39098 23.0313 9.4769C22.8645 9.56282 22.7171 9.68129 22.5892 9.83164C22.4612 9.982 22.3603 10.1564 22.2879 10.3543C22.2156 10.5522 22.1787 10.7631 22.1787 10.987V16.7306C22.1787 16.9545 22.2149 17.1673 22.2879 17.3698C22.3603 17.5722 22.4612 17.746 22.5892 17.8924C22.7171 18.0389 22.8645 18.1548 23.0313 18.2407C23.198 18.3266 23.3797 18.3696 23.5762 18.3696H24.9988C25.1869 18.3696 25.3659 18.3266 25.5372 18.2407C25.7079 18.1548 25.8578 18.0389 25.9858 17.8924C26.1138 17.746 26.2146 17.5722 26.287 17.3698C26.3594 17.168 26.3963 16.9545 26.3963 16.7306V15.311H24.8456V16.6017H23.7306V11.1159H24.8456V12.4711H26.3963V10.987C26.3963 10.7631 26.3601 10.5528 26.287 10.3543C26.2146 10.1564 26.1144 9.98265 25.9858 9.83164Z" fill="white"/>
<path d="M28.4224 18.2025L28.6402 17.5054L29.1657 18.3568H31.1009L29.2678 15.4661L31.152 9.3092H29.4986L28.4224 12.8326V9.3092H26.8711V18.3568H28.4224V18.2025Z" fill="white"/>
<path d="M30.9548 19.3765C30.64 19.3264 30.2567 19.2366 29.0868 19.2366C27.8089 19.2366 26.8161 19.5868 26.8161 21.2863L26.8154 23.39C26.8154 25.0895 27.8082 25.4397 29.0861 25.4397C30.256 25.4397 30.6393 25.3499 30.9541 25.2998C31.1015 25.2796 31.1506 25.2295 31.1506 25.0895V24.4497C31.1506 24.3397 31.0621 24.2498 30.9541 24.2498H28.9491C28.379 24.2498 28.1728 24.05 28.1728 23.39L28.1734 22.8061H30.8378C30.947 22.8055 31.0343 22.7157 31.0343 22.6063V21.8864C31.0343 21.7764 30.9457 21.6866 30.8378 21.6866H28.1734V21.2869C28.1734 20.6269 28.3803 20.4271 28.9504 20.4271H30.9561C31.0653 20.4264 31.1525 20.3366 31.1525 20.2272V19.5874C31.1513 19.4468 31.1021 19.3967 30.9548 19.3765Z" fill="white"/>
<path d="M19.1452 19.4409H19.0399C18.9345 19.4409 18.8505 19.5327 18.8292 19.6355L17.8027 25.245V25.286C17.8027 25.3681 17.8557 25.4397 17.9501 25.4397H18.0555C18.1608 25.4397 18.2448 25.3479 18.2655 25.245L19.292 19.6355V19.5945C19.292 19.5125 19.2396 19.4409 19.1452 19.4409Z" fill="white"/>
<path d="M16.7822 19.4409H15.7267C15.6471 19.4409 15.5676 19.5119 15.5573 19.6232L14.9633 24.0636C14.953 24.1548 14.953 24.2153 14.9135 24.2153C14.8734 24.2153 14.8734 24.1548 14.8534 24.0636L13.997 21.3344C13.9375 21.0916 13.7979 20.8794 13.37 20.8794H12.6823C12.2537 20.8794 12.1148 21.0916 12.0547 21.3344L11.1982 24.0636C11.1782 24.1548 11.1782 24.2153 11.1388 24.2153C11.0993 24.2153 11.0987 24.1548 11.089 24.0636L10.4743 19.6232C10.4646 19.5119 10.3844 19.4409 10.3049 19.4409H9.24943C9.15958 19.4409 9.08008 19.4917 9.08008 19.5828V19.6128L9.91389 24.6195C10.0031 25.2567 10.292 25.439 10.8104 25.439H11.3482C11.7961 25.439 12.0353 25.2164 12.1749 24.6293L12.9615 22.1122C12.9815 22.0211 12.9912 22.0009 13.0313 22.0009C13.0707 22.0009 13.0707 22.0211 13.0908 22.1122L13.8774 24.6293C14.017 25.2164 14.2555 25.439 14.7041 25.439H15.2419C15.7596 25.439 16.0485 25.2567 16.1377 24.6195L16.9515 19.6128V19.5828C16.9515 19.4917 16.872 19.4409 16.7822 19.4409Z" fill="white"/>
<path d="M25.325 19.4409H25.2086C25.1117 19.4409 25.0438 19.5333 25.0244 19.6355L24.1447 24.9274C24.135 24.9684 24.0865 25.0094 24.0768 25.0094C24.0749 25.0094 24.0743 25.0088 24.073 25.0081C24.0704 25.0081 24.0684 25.0062 24.0658 25.0062C24.0374 24.9996 24.0277 24.9736 24.0193 24.9378L22.4344 19.7586C22.3762 19.5848 22.2496 19.4409 21.9975 19.4409C21.9845 19.4409 21.9716 19.4416 21.958 19.4429V19.4409L21.9393 19.4429V19.4409C21.7467 19.4624 21.525 19.5952 21.4629 19.9395L20.5684 25.245V25.286C20.5684 25.3681 20.6168 25.4397 20.7041 25.4397H20.8011C20.898 25.4397 20.9756 25.3479 20.995 25.245L21.8895 19.9395C21.8979 19.8959 21.9206 19.8757 21.9387 19.8699V19.8718C21.9419 19.8712 21.9451 19.8699 21.9477 19.8699C21.9509 19.8699 21.9542 19.8712 21.9574 19.8718V19.8738C21.9949 19.879 22.0259 19.9063 22.0356 19.9434L23.6205 25.1123C23.6981 25.3674 23.8235 25.4397 24.0652 25.4397H24.0671L24.073 25.439V25.4397C24.3134 25.4364 24.5241 25.2529 24.5816 24.928L25.4614 19.6362V19.5952C25.4607 19.5132 25.4219 19.4409 25.325 19.4409Z" fill="white"/>
<path d="M20.3393 9.32251H18.8655L17.1992 18.3447H18.7886L19.1344 16.4603H20.0956L20.4414 18.3447H22.0308L20.3393 9.32251ZM19.2579 14.6918L19.6082 13.1186L19.9715 14.6918H19.2579Z" fill="white"/>
</g>
<defs>
<linearGradient id="paint0_linear_6851_14577" x1="39.3506" y1="-2.84786" x2="-1.75245" y2="36.577" gradientUnits="userSpaceOnUse">
<stop stop-color="#4F4F4F" stop-opacity="0.98"/>
<stop offset="1"/>
</linearGradient>
<clipPath id="clip0_6851_14577">
<rect width="56.6333" height="52.8725" fill="white" transform="translate(-8.22559 -4.89429)"/>
</clipPath>
</defs>
</svg>
