<svg xmlns:xlink="http://www.w3.org/1999/xlink" xmlns="http://www.w3.org/2000/svg" width="16" height="17" viewBox="0 0 16 17" fill="none"><link xmlns="" type="text/css" rel="stylesheet" id="dark-mode-custom-link"/><link xmlns="" type="text/css" rel="stylesheet" id="dark-mode-general-link"/><style xmlns="" lang="en" type="text/css" id="dark-mode-custom-style"/><style xmlns="" lang="en" type="text/css" id="dark-mode-native-style"/>
<path fill-rule="evenodd" clip-rule="evenodd" d="M14.6666 8.50065C14.6666 12.1819 11.6811 15.1673 7.99992 15.1673C4.31749 15.1673 1.33325 12.1819 1.33325 8.50065C1.33325 4.81823 4.31749 1.83398 7.99992 1.83398C11.6811 1.83398 14.6666 4.81823 14.6666 8.50065Z" fill="#0E5E97"/>
<path fill-rule="evenodd" clip-rule="evenodd" d="M11.4713 6.02925C11.7317 6.2896 11.7317 6.71171 11.4713 6.97206L7.47132 10.9721C7.21097 11.2324 6.78886 11.2324 6.52851 10.9721L4.52851 8.97206C4.26816 8.71171 4.26816 8.2896 4.52851 8.02925C4.78886 7.7689 5.21097 7.7689 5.47132 8.02925L6.99992 9.55784L10.5285 6.02925C10.7889 5.7689 11.211 5.7689 11.4713 6.02925Z" fill="white"/>
</svg>