<svg width="38" height="45" viewBox="0 0 38 45" fill="none" xmlns="http://www.w3.org/2000/svg">
<path d="M25 4C24.8227 2.17581 22.073 1 19 1C15.927 1 13.0542 2.17581 13 4" stroke="#404040" stroke-width="0.5"/>
<path fill-rule="evenodd" clip-rule="evenodd" d="M0 48.7555H37.0335V3.0083H0V48.7555Z" fill="#C2977C"/>
<mask id="mask0_6847_4878" style="mask-type:alpha" maskUnits="userSpaceOnUse" x="0" y="3" width="38" height="46">
<path fill-rule="evenodd" clip-rule="evenodd" d="M0 48.7555H37.0335V3.0083H0V48.7555Z" fill="white"/>
</mask>
<g mask="url(#mask0_6847_4878)">
<path fill-rule="evenodd" clip-rule="evenodd" d="M30.6394 45.8546L22.626 41.1409L33.4673 22.543L41.4807 27.2566L30.6394 45.8546Z" fill="#FA6400"/>
<path fill-rule="evenodd" clip-rule="evenodd" d="M0 33.3488V53.4257H2.96932L15.4807 31.7711L4.63158 25.3323L0 33.3488Z" fill="#5CB79F"/>
<path fill-rule="evenodd" clip-rule="evenodd" d="M19.0527 47.2182L29.3567 53.2266H36.3493L37.709 50.9143L22.1979 41.8696L19.0527 47.2182Z" fill="#DF3378"/>
<path fill-rule="evenodd" clip-rule="evenodd" d="M24.5985 35.8923L16.8701 31.3598L19.4622 26.9263L27.1906 31.4587L24.5985 35.8923Z" fill="#B71277"/>
<path fill-rule="evenodd" clip-rule="evenodd" d="M31.5566 46.356L50.0144 56.9127L88.7162 52.4297L42.3857 27.7234L31.5566 46.356Z" fill="#F75F75"/>
<path fill-rule="evenodd" clip-rule="evenodd" d="M0 21.4727L15.9559 30.9112L19.4501 24.883L0 13.3777V21.4727Z" fill="#DF3378"/>
<path fill-rule="evenodd" clip-rule="evenodd" d="M0 29.9335L0.632131 30.3135L3.77094 24.8101L0 22.543V29.9335Z" fill="#F75F75"/>
<path fill-rule="evenodd" clip-rule="evenodd" d="M16.3064 50.2379L8.53418 45.6673L16.4411 32.1067L24.2134 36.6773L16.3064 50.2379Z" fill="#F5B554"/>
</g>
<path fill-rule="evenodd" clip-rule="evenodd" d="M30.2868 14.3559C29.9495 14.4107 29.5384 14.5093 28.2839 14.5093C26.9134 14.5093 25.8486 14.1258 25.8486 12.2639L25.8492 9.9592C25.8492 8.09715 26.9139 7.71387 28.2844 7.71387C29.5389 7.71387 29.95 7.8124 30.2873 7.86716C30.4455 7.8891 30.4981 7.94386 30.4981 8.09715V8.79819C30.4981 8.91867 30.4033 9.0172 30.2873 9.0172H28.1368C27.5253 9.0172 27.304 9.23632 27.304 9.9592V10.3971H30.1609C30.2768 10.3971 30.3717 10.4958 30.3717 10.6163V11.4049C30.3717 11.5253 30.2768 11.6239 30.1609 11.6239H27.304L27.3034 12.2639C27.3034 12.9867 27.5249 13.2059 28.1363 13.2059H30.2868C30.4029 13.2059 30.4976 13.3044 30.4976 13.4249V14.1258C30.4976 14.2792 30.4449 14.334 30.2868 14.3559Z" fill="#222222"/>
<path fill-rule="evenodd" clip-rule="evenodd" d="M17.622 8.28029L16.6361 14.3004C16.6158 14.4104 16.5351 14.5093 16.4339 14.5093H16.3329C16.2419 14.5093 16.1914 14.4324 16.1914 14.3445V14.3004L17.1773 8.28029C17.1975 8.17043 17.2784 8.07153 17.3795 8.07153H17.4805C17.5715 8.07153 17.622 8.14847 17.622 8.23639V8.28029Z" fill="#222222"/>
<path fill-rule="evenodd" clip-rule="evenodd" d="M15.1189 8.25613L14.2317 13.6297C14.134 14.3138 13.8191 14.5093 13.2543 14.5093H12.668C12.1792 14.5093 11.9188 14.2704 11.7667 13.6406L10.9087 10.9394C10.8869 10.8416 10.8869 10.8199 10.8436 10.8199C10.8002 10.8199 10.7893 10.8416 10.7676 10.9394L9.90968 13.6406C9.75769 14.2704 9.49704 14.5093 9.00836 14.5093H8.42199C7.85727 14.5093 7.54233 14.3138 7.44463 13.6297L6.53516 8.25613V8.2236C6.53516 8.12581 6.62207 8.07153 6.71977 8.07153H7.87096C7.95778 8.07153 8.0447 8.14757 8.05548 8.267L8.72595 13.0326C8.73693 13.1303 8.73693 13.1954 8.78024 13.1954C8.82375 13.1954 8.82375 13.1303 8.8454 13.0326L9.77935 10.1033C9.84461 9.84273 9.99659 9.61474 10.4634 9.61474H11.2129C11.6798 9.61474 11.8318 9.84273 11.897 10.1033L12.8309 13.0326C12.8526 13.1303 12.8526 13.1954 12.896 13.1954C12.9394 13.1954 12.9394 13.1303 12.9503 13.0326L13.5984 8.267C13.6094 8.14757 13.6962 8.07153 13.783 8.07153H14.9341C15.032 8.07153 15.1189 8.12581 15.1189 8.2236V8.25613Z" fill="#222222"/>
<path fill-rule="evenodd" clip-rule="evenodd" d="M24.2686 8.07153H24.1408C24.0345 8.07153 23.96 8.17042 23.9386 8.28039L22.9739 13.9601C22.9631 14.004 22.9099 14.048 22.8993 14.048C22.8974 14.048 22.8964 14.0471 22.8947 14.0469V14.0467C22.8917 14.0465 22.8896 14.0449 22.8868 14.0444C22.8558 14.0376 22.8448 14.0093 22.8355 13.9707L21.0978 8.41221C21.034 8.22541 20.8956 8.07153 20.6191 8.07153C20.6049 8.07153 20.5905 8.07214 20.576 8.07325V8.07153C20.5693 8.07204 20.5624 8.07304 20.5557 8.07375V8.07153C20.3443 8.0947 20.1014 8.23709 20.0337 8.60617L19.0527 14.3004V14.3445C19.0527 14.4323 19.106 14.5092 19.2016 14.5092H19.3081C19.4145 14.5092 19.4998 14.4103 19.5209 14.3004L20.502 8.60617C20.511 8.55924 20.5354 8.53739 20.5557 8.53175V8.53396C20.5591 8.53306 20.5627 8.53145 20.5658 8.53145C20.5693 8.53145 20.5726 8.53296 20.576 8.53326V8.53497C20.6149 8.5397 20.6518 8.56961 20.6616 8.6101L22.3991 14.1577C22.484 14.4317 22.6219 14.5089 22.8868 14.5092C22.8875 14.5092 22.8881 14.5093 22.8886 14.5093C22.8907 14.5093 22.8927 14.509 22.8947 14.509V14.5093C23.1583 14.5062 23.3894 14.309 23.4527 13.9601L24.4175 8.28039V8.23638C24.4175 8.14857 24.375 8.07153 24.2686 8.07153Z" fill="#222222"/>
</svg>
